<?xml version="1.0" standalone="no"?>
<!DOCTYPE svg PUBLIC "-//W3C//DTD SVG 20010904//EN"
 "http://www.w3.org/TR/2001/REC-SVG-20010904/DTD/svg10.dtd">
<svg version="1.0" xmlns="http://www.w3.org/2000/svg"
 width="620.000000pt" height="620.000000pt" viewBox="0 0 620.000000 620.000000"
 preserveAspectRatio="xMidYMid meet">
<metadata>
Created by potrace 1.14, written by Peter Selinger 2001-2017
</metadata>
<g transform="translate(0.000000,620.000000) scale(0.100000,-0.100000)"
fill="#000000" stroke="none">
<path d="M3005 6126 c-37 -16 -279 -247 -770 -736 -255 -253 -374 -376 -408
-422 -35 -45 -33 -89 4 -98 24 -7 142 -10 446 -14 l161 -2 45 -43 44 -43 2
-172 c3 -237 10 -601 11 -601 0 0 2 -44 4 -98 3 -84 6 -101 25 -121 41 -44 68
-46 564 -44 l468 2 37 40 37 41 0 212 c0 117 2 213 5 213 3 0 5 87 6 193 1
328 11 381 81 406 45 17 78 19 337 21 121 1 231 6 246 12 18 6 30 18 33 35 6
33 0 40 -588 628 -476 477 -556 554 -609 586 -37 23 -135 25 -181 5z"/>
<path d="M1208 4352 c-58 -38 -172 -148 -680 -651 l-528 -524 0 -67 0 -67 409
-409 c436 -436 649 -645 749 -735 67 -60 99 -68 118 -31 14 29 17 281 15 1387
-1 1079 -2 1083 -26 1101 -24 18 -25 17 -57 -4z"/>
<path d="M4935 4332 c-7 -5 -21 -950 -16 -1142 0 -20 0 -632 -1 -645 0 -5 2
-152 4 -327 4 -336 6 -348 53 -348 16 0 171 149 556 533 641 639 659 658 654
707 -1 8 -3 26 -3 39 -2 18 -76 98 -265 285 -230 229 -561 549 -712 691 -237
223 -243 227 -270 207z"/>
<path d="M2684 2509 c-76 -10 -130 -44 -140 -90 -3 -13 -7 -213 -9 -444 -5
-506 -7 -538 -40 -587 -48 -72 -47 -72 -339 -74 -305 -3 -326 -5 -326 -42 0
-19 55 -78 438 -471 302 -310 683 -689 726 -722 21 -17 46 -23 100 -26 l71 -5
472 474 c675 675 724 728 716 757 -7 27 -48 33 -287 36 -217 3 -292 9 -317 28
-50 38 -59 85 -64 355 -2 101 -6 186 -9 189 -2 3 -1 15 4 28 5 13 6 25 4 28
-3 3 -7 104 -9 224 -2 120 -8 236 -14 258 -13 50 -47 72 -127 81 -76 9 -783
11 -850 3z"/>
</g>
</svg>
