<svg aria-hidden="true" style="position: absolute; width: 0; height: 0; overflow: hidden;" version="1.1" xmlns="http://www.w3.org/2000/svg" xmlns:xlink="http://www.w3.org/1999/xlink">
    <defs>
        <symbol id="logo" viewBox="0 0 33 32">
            <path d="M15.65 0.14c-0.112 0.070-1.554 1.463-3.207 3.095-2.724 2.696-2.99 2.983-2.99 3.186 0 0.182 0.035 0.238 0.161 0.266 0.084 0.021 0.84 0.042 1.674 0.049l1.526 0.021 0.224 0.231 0.231 0.224 0.035 2.507c0.021 1.372 0.063 2.549 0.091 2.612 0.035 0.063 0.161 0.168 0.28 0.231 0.203 0.105 0.49 0.119 2.724 0.098l2.507-0.021 0.189-0.196 0.196-0.189 0.035-2.507c0.035-2.738 0.035-2.717 0.462-2.92 0.175-0.084 0.532-0.105 1.667-0.105 1.351 0 1.442-0.007 1.512-0.133 0.035-0.077 0.070-0.175 0.070-0.231 0-0.098-4.979-5.119-5.833-5.875-0.532-0.476-0.546-0.483-0.945-0.483-0.28 0-0.462 0.042-0.609 0.14z"></path>
            <path d="M3.144 12.443l-3.144 3.137v0.693l3.123 3.13c1.821 1.821 3.193 3.144 3.291 3.165 0.084 0.014 0.203 0 0.266-0.035 0.098-0.056 0.112-0.686 0.112-6.554 0-4.965-0.021-6.519-0.084-6.582-0.245-0.245-0.357-0.147-3.564 3.046z"></path>
            <path d="M25.887 9.495c-0.028 0.028-0.049 2.927-0.049 6.442 0 6.246 0 6.4 0.133 6.47 0.077 0.035 0.182 0.056 0.231 0.035s1.484-1.435 3.193-3.137c2.794-2.794 3.095-3.116 3.095-3.319 0-0.126-0.035-0.301-0.077-0.392-0.112-0.252-6.155-6.106-6.323-6.127-0.084-0.014-0.175 0-0.203 0.028z"></path>
            <path d="M13.675 19.186c-0.119 0.070-0.259 0.196-0.294 0.273-0.049 0.091-0.077 0.987-0.077 2.577 0 1.442-0.028 2.542-0.070 2.696-0.042 0.14-0.168 0.336-0.287 0.434l-0.217 0.182h-1.484c-1.505 0-1.653 0.021-1.653 0.266 0 0.119 5.833 6.057 6.134 6.253 0.14 0.084 0.343 0.133 0.56 0.133h0.336l3.137-3.13c1.73-1.723 3.137-3.186 3.137-3.256 0-0.224-0.245-0.266-1.611-0.266-1.127 0-1.372-0.021-1.54-0.119-0.378-0.217-0.385-0.266-0.42-3.109-0.028-2.199-0.049-2.654-0.14-2.759-0.245-0.294-0.448-0.315-2.92-0.315-2.22 0-2.381 0.007-2.591 0.14z"></path>
        </symbol>
    </defs>
</svg>