<svg aria-hidden="true" style="position: absolute; width: 0; height: 0; overflow: hidden;" version="1.1" xmlns="http://www.w3.org/2000/svg" xmlns:xlink="http://www.w3.org/1999/xlink">
    <defs>
        <symbol id="logo" viewBox="0 0 33 32">
            <path d="M15.65 0.14c-0.112 0.070-1.554 1.463-3.207 3.095-2.724 2.696-2.99 2.983-2.99 3.186 0 0.182 0.035 0.238 0.161 0.266 0.084 0.021 0.84 0.042 1.674 0.049l1.526 0.021 0.224 0.231 0.231 0.224 0.035 2.507c0.021 1.372 0.063 2.549 0.091 2.612 0.035 0.063 0.161 0.168 0.28 0.231 0.203 0.105 0.49 0.119 2.724 0.098l2.507-0.021 0.189-0.196 0.196-0.189 0.035-2.507c0.035-2.738 0.035-2.717 0.462-2.92 0.175-0.084 0.532-0.105 1.667-0.105 1.351 0 1.442-0.007 1.512-0.133 0.035-0.077 0.070-0.175 0.070-0.231 0-0.098-4.979-5.119-5.833-5.875-0.532-0.476-0.546-0.483-0.945-0.483-0.28 0-0.462 0.042-0.609 0.14z"></path>
            <path d="M3.144 12.443l-3.144 3.137v0.693l3.123 3.13c1.821 1.821 3.193 3.144 3.291 3.165 0.084 0.014 0.203 0 0.266-0.035 0.098-0.056 0.112-0.686 0.112-6.554 0-4.965-0.021-6.519-0.084-6.582-0.245-0.245-0.357-0.147-3.564 3.046z"></path>
            <path d="M25.887 9.495c-0.028 0.028-0.049 2.927-0.049 6.442 0 6.246 0 6.4 0.133 6.47 0.077 0.035 0.182 0.056 0.231 0.035s1.484-1.435 3.193-3.137c2.794-2.794 3.095-3.116 3.095-3.319 0-0.126-0.035-0.301-0.077-0.392-0.112-0.252-6.155-6.106-6.323-6.127-0.084-0.014-0.175 0-0.203 0.028z"></path>
            <path d="M13.675 19.186c-0.119 0.070-0.259 0.196-0.294 0.273-0.049 0.091-0.077 0.987-0.077 2.577 0 1.442-0.028 2.542-0.070 2.696-0.042 0.14-0.168 0.336-0.287 0.434l-0.217 0.182h-1.484c-1.505 0-1.653 0.021-1.653 0.266 0 0.119 5.833 6.057 6.134 6.253 0.14 0.084 0.343 0.133 0.56 0.133h0.336l3.137-3.13c1.73-1.723 3.137-3.186 3.137-3.256 0-0.224-0.245-0.266-1.611-0.266-1.127 0-1.372-0.021-1.54-0.119-0.378-0.217-0.385-0.266-0.42-3.109-0.028-2.199-0.049-2.654-0.14-2.759-0.245-0.294-0.448-0.315-2.92-0.315-2.22 0-2.381 0.007-2.591 0.14z"></path>
        </symbol>
        <symbol id="search" viewBox="0 0 24 24">
            <path d="M9.516 14.016q1.875 0 3.188-1.313t1.313-3.188-1.313-3.188-3.188-1.313-3.188 1.313-1.313 3.188 1.313 3.188 3.188 1.313zM15.516 14.016l4.969 4.969-1.5 1.5-4.969-4.969v-0.797l-0.281-0.281q-1.781 1.547-4.219 1.547-2.719 0-4.617-1.875t-1.898-4.594 1.898-4.617 4.617-1.898 4.594 1.898 1.875 4.617q0 0.984-0.469 2.227t-1.078 1.992l0.281 0.281h0.797z"></path>
        </symbol>
        <symbol id="clear" viewBox="0 0 24 24">
            <path d="M18.984 6.422l-5.578 5.578 5.578 5.578-1.406 1.406-5.578-5.578-5.578 5.578-1.406-1.406 5.578-5.578-5.578-5.578 1.406-1.406 5.578 5.578 5.578-5.578z"></path>
        </symbol>
        <symbol id="trash" viewBox="0 0 24 24">
            <path d="M15.516 3.984h3.469v2.016h-13.969v-2.016h3.469l1.031-0.984h4.969zM8.016 9v9.984h7.969v-9.984h-7.969zM6 18.984v-12h12v12q0 0.797-0.609 1.406t-1.406 0.609h-7.969q-0.797 0-1.406-0.609t-0.609-1.406z"></path>
        </symbol>
        <symbol id="status" viewBox="0 0 24 28">
            <path d="M22.937 7.438c0.156 0.156 0.297 0.344 0.438 0.562h-7.375v-7.375c0.219 0.141 0.406 0.281 0.562 0.438zM15.5 10h8.5v16.5c0 0.828-0.672 1.5-1.5 1.5h-21c-0.828 0-1.5-0.672-1.5-1.5v-25c0-0.828 0.672-1.5 1.5-1.5h12.5v8.5c0 0.828 0.672 1.5 1.5 1.5zM18 21.5v-1c0-0.281-0.219-0.5-0.5-0.5h-11c-0.281 0-0.5 0.219-0.5 0.5v1c0 0.281 0.219 0.5 0.5 0.5h11c0.281 0 0.5-0.219 0.5-0.5zM18 17.5v-1c0-0.281-0.219-0.5-0.5-0.5h-11c-0.281 0-0.5 0.219-0.5 0.5v1c0 0.281 0.219 0.5 0.5 0.5h11c0.281 0 0.5-0.219 0.5-0.5zM18 13.5v-1c0-0.281-0.219-0.5-0.5-0.5h-11c-0.281 0-0.5 0.219-0.5 0.5v1c0 0.281 0.219 0.5 0.5 0.5h11c0.281 0 0.5-0.219 0.5-0.5z"></path>
        </symbol>
        <symbol id="box1" viewBox="0 0 28 28">
            <path d="M17 13c0-0.547-0.453-1-1-1h-4c-0.547 0-1 0.453-1 1s0.453 1 1 1h4c0.547 0 1-0.453 1-1zM26 10v15c0 0.547-0.453 1-1 1h-22c-0.547 0-1-0.453-1-1v-15c0-0.547 0.453-1 1-1h22c0.547 0 1 0.453 1 1zM27 3v4c0 0.547-0.453 1-1 1h-24c-0.547 0-1-0.453-1-1v-4c0-0.547 0.453-1 1-1h24c0.547 0 1 0.453 1 1z"></path>
        </symbol>
        <symbol id="box2" viewBox="0 0 24 24">
            <path d="M5.109 5.016h13.781l-0.938-1.031h-12zM12 9.516l-5.484 5.484h3.469v2.016h4.031v-2.016h3.469zM20.531 5.203q0.469 0.563 0.469 1.313v12.469q0 0.797-0.609 1.406t-1.406 0.609h-13.969q-0.844 0-1.43-0.586t-0.586-1.43v-12.469q0-0.75 0.469-1.313l1.359-1.641q0.469-0.563 1.172-0.563h12q0.703 0 1.172 0.563z"></path>
        </symbol>
        <symbol id="location" viewBox="0 0 24 24">
            <path d="M12 11.484q1.031 0 1.758-0.727t0.727-1.758-0.727-1.758-1.758-0.727-1.758 0.727-0.727 1.758 0.727 1.758 1.758 0.727zM12 2.016q2.906 0 4.945 2.039t2.039 4.945q0 1.453-0.727 3.328t-1.758 3.516-2.039 3.070-1.711 2.273l-0.75 0.797q-0.281-0.328-0.75-0.867t-1.688-2.156-2.133-3.141-1.664-3.445-0.75-3.375q0-2.906 2.039-4.945t4.945-2.039z"></path>
        </symbol>
        <symbol id="location1" viewBox="0 0 20 20">
            <path d="M19.367 18.102l-1.367-4.102h-1.5l0.833 4h-14.666l0.833-4h-1.5l-1.368 4.102c-0.347 1.044 0.268 1.898 1.368 1.898h16c1.1 0 1.715-0.854 1.367-1.898zM15 5c0-2.761-2.238-5-5-5s-5 2.239-5 5c0 4.775 5 10 5 10s5-5.225 5-10zM7.3 5.060c0-1.491 1.208-2.699 2.7-2.699s2.7 1.208 2.7 2.699c0 1.492-1.209 2.7-2.7 2.7s-2.7-1.209-2.7-2.7z"></path>
        </symbol>
        <symbol id="dots" viewBox="0 0 20 20">
            <path d="M10.001 7.8c-1.215 0-2.201 0.985-2.201 2.2s0.986 2.2 2.201 2.2c1.215 0 2.199-0.985 2.199-2.2s-0.984-2.2-2.199-2.2zM10.001 5.2c1.215 0 2.199-0.986 2.199-2.2s-0.984-2.2-2.199-2.2c-1.215 0-2.201 0.985-2.201 2.2s0.986 2.2 2.201 2.2zM10.001 14.8c-1.215 0-2.201 0.985-2.201 2.2s0.986 2.2 2.201 2.2c1.215 0 2.199-0.985 2.199-2.2s-0.984-2.2-2.199-2.2z"></path>
        </symbol>
    </defs>
</svg>